<?xml version="1.0" encoding="UTF-8" standalone="no"?>
<svg
   xmlns:osb="http://www.openswatchbook.org/uri/2009/osb"
   xmlns:dc="http://purl.org/dc/elements/1.1/"
   xmlns:cc="http://creativecommons.org/ns#"
   xmlns:rdf="http://www.w3.org/1999/02/22-rdf-syntax-ns#"
   xmlns:svg="http://www.w3.org/2000/svg"
   xmlns="http://www.w3.org/2000/svg"
   xmlns:sodipodi="http://sodipodi.sourceforge.net/DTD/sodipodi-0.dtd"
   xmlns:inkscape="http://www.inkscape.org/namespaces/inkscape"
   width="16"
   height="16"
   version="1.1"
   id="svg92"
   sodipodi:docname="media-playlist-noshuffle-symbolic.svg"
   inkscape:version="1.0 (4035a4fb49, 2020-05-01)">
  <metadata
     id="metadata98">
    <rdf:RDF>
      <cc:Work
         rdf:about="">
        <dc:format>image/svg+xml</dc:format>
        <dc:type
           rdf:resource="http://purl.org/dc/dcmitype/StillImage" />
      </cc:Work>
    </rdf:RDF>
  </metadata>
  <defs
     id="defs96">
    <linearGradient
       id="linearGradient1057"
       osb:paint="solid">
      <stop
         style="stop-color:#000000;stop-opacity:1;"
         offset="0"
         id="stop1055" />
    </linearGradient>
  </defs>
  <sodipodi:namedview
     inkscape:document-rotation="0"
     pagecolor="#ffffff"
     bordercolor="#666666"
     borderopacity="1"
     objecttolerance="10"
     gridtolerance="10"
     guidetolerance="10"
     inkscape:pageopacity="0"
     inkscape:pageshadow="2"
     inkscape:window-width="1920"
     inkscape:window-height="1016"
     id="namedview94"
     showgrid="true"
     inkscape:zoom="26.310798"
     inkscape:cx="10.014291"
     inkscape:cy="9.4611097"
     inkscape:window-x="0"
     inkscape:window-y="0"
     inkscape:window-maximized="1"
     inkscape:current-layer="svg92">
    <inkscape:grid
       type="xygrid"
       id="grid102" />
  </sodipodi:namedview>
  <g
     fill="#474747"
     id="g90">
    <path
       id="path82"
       style="line-height:normal;font-variant-ligatures:normal;font-variant-position:normal;font-variant-caps:normal;font-variant-numeric:normal;font-variant-alternates:normal;font-feature-settings:normal;text-indent:0;text-align:start;text-decoration-line:none;text-decoration-style:solid;text-decoration-color:#000;text-transform:none;text-orientation:mixed;shape-padding:0;isolation:auto;mix-blend-mode:normal;marker:none"
       d="M 1 3 L 1 5 L 4 5 C 4.572 5 5 5.429 5 6 L 5 8.8085938 L 7 6.8085938 L 7 6 C 7 4.355 5.645 3 4 3 L 1 3 z M 7.4003906 10.791016 L 5.9882812 12.203125 C 6.523051 12.692181 7.2264382 13 8 13 L 14 13 L 14 11 L 8 11 C 7.7662787 11 7.566848 10.915085 7.4003906 10.791016 z " />
    <path
       id="path84"
       style="line-height:normal;font-variant-ligatures:normal;font-variant-position:normal;font-variant-caps:normal;font-variant-numeric:normal;font-variant-alternates:normal;font-feature-settings:normal;text-indent:0;text-align:start;text-decoration-line:none;text-decoration-style:solid;text-decoration-color:#000;text-transform:none;text-orientation:mixed;shape-padding:0;isolation:auto;mix-blend-mode:normal;marker:none"
       d="M 11.990234 0.99023438 A 1 1 0 0 0 11.203125 2.6054688 L 12.605469 1.203125 A 1 1 0 0 0 11.990234 0.99023438 z M 14.802734 3.3886719 L 11.382812 6.8085938 A 1 1 0 0 0 12.707031 6.7070312 L 15.414062 4 L 14.802734 3.3886719 z M 11.990234 8.9902344 A 1 1 0 0 0 11.292969 10.707031 L 12.585938 12 L 11.292969 13.292969 A 1 1 0 1 0 12.707031 14.707031 L 15.414062 12 L 12.707031 9.2929688 A 1 1 0 0 0 11.990234 8.9902344 z " />
    <path
       id="path86"
       style="line-height:normal;text-indent:0;text-align:start;text-decoration-line:none;text-transform:none;marker:none"
       d="M 8 3 C 7.77 3 7.55975 3.04375 7.34375 3.09375 C 7.82475 3.64375 8.205 4.271 8.375 5 L 8.8085938 5 L 10.808594 3 L 8 3 z M 14 4.1914062 L 13.191406 5 L 14 5 L 14 4.1914062 z M 1 11 L 1 12.808594 L 2.8085938 11 L 1 11 z " />
    <path
       id="path88"
       style="marker:none"
       d="M 11 1 L 11 2 L 11.808594 2 L 12 1.8085938 L 12 1 L 11 1 z M 12 6.1914062 L 11.191406 7 L 12 7 L 12 6.1914062 z M 11 9 L 11 10 L 12 10 L 12 9 L 11 9 z M 11 14 L 11 15 L 12 15 L 12 14 L 11 14 z " />
  </g>
  <g
     id="g1049"
     style="opacity:1;fill-opacity:1;fill-rule:nonzero">
    <path
       style="color:#000000;font-style:normal;font-variant:normal;font-weight:normal;font-stretch:normal;font-size:medium;line-height:normal;font-family:sans-serif;font-variant-ligatures:normal;font-variant-position:normal;font-variant-caps:normal;font-variant-numeric:normal;font-variant-alternates:normal;font-variant-east-asian:normal;font-feature-settings:normal;font-variation-settings:normal;text-indent:0;text-align:start;text-decoration:none;text-decoration-line:none;text-decoration-style:solid;text-decoration-color:#000000;letter-spacing:normal;word-spacing:normal;text-transform:none;writing-mode:lr-tb;direction:ltr;text-orientation:mixed;dominant-baseline:auto;baseline-shift:baseline;text-anchor:start;white-space:normal;shape-padding:0;shape-margin:0;inline-size:0;clip-rule:nonzero;display:inline;overflow:visible;visibility:visible;isolation:auto;mix-blend-mode:normal;color-interpolation:sRGB;color-interpolation-filters:linearRGB;solid-color:#000000;solid-opacity:1;vector-effect:none;fill-opacity:1;fill-rule:nonzero;stroke:none;stroke-width:2.5;stroke-linecap:butt;stroke-linejoin:miter;stroke-miterlimit:4;stroke-dasharray:none;stroke-dashoffset:0;stroke-opacity:1;color-rendering:auto;image-rendering:auto;shape-rendering:auto;text-rendering:auto;enable-background:accumulate;stop-color:#000000;stop-opacity:1"
       d="M 1,15 15,1"
       id="path1051" />
    <path
       style="color:#000000;font-style:normal;font-variant:normal;font-weight:normal;font-stretch:normal;font-size:medium;line-height:normal;font-family:sans-serif;font-variant-ligatures:normal;font-variant-position:normal;font-variant-caps:normal;font-variant-numeric:normal;font-variant-alternates:normal;font-variant-east-asian:normal;font-feature-settings:normal;font-variation-settings:normal;text-indent:0;text-align:start;text-decoration:none;text-decoration-line:none;text-decoration-style:solid;text-decoration-color:#000000;letter-spacing:normal;word-spacing:normal;text-transform:none;writing-mode:lr-tb;direction:ltr;text-orientation:mixed;dominant-baseline:auto;baseline-shift:baseline;text-anchor:start;white-space:normal;shape-padding:0;shape-margin:0;inline-size:0;clip-rule:nonzero;display:inline;overflow:visible;visibility:visible;isolation:auto;mix-blend-mode:normal;color-interpolation:sRGB;color-interpolation-filters:linearRGB;solid-color:#000000;solid-opacity:1;vector-effect:none;fill-opacity:1;fill-rule:nonzero;color-rendering:auto;image-rendering:auto;shape-rendering:auto;text-rendering:auto;enable-background:accumulate;stop-color:#000000;stop-opacity:1"
       d="M 14.115234 0.11523438 L 0.11523438 14.115234 L 1.8847656 15.884766 L 15.884766 1.8847656 L 14.115234 0.11523438 z "
       id="path1053" />
  </g>
</svg>
