<?xml version="1.0" encoding="UTF-8" standalone="no"?>
<svg
   xmlns:dc="http://purl.org/dc/elements/1.1/"
   xmlns:cc="http://creativecommons.org/ns#"
   xmlns:rdf="http://www.w3.org/1999/02/22-rdf-syntax-ns#"
   xmlns:svg="http://www.w3.org/2000/svg"
   xmlns="http://www.w3.org/2000/svg"
   xmlns:sodipodi="http://sodipodi.sourceforge.net/DTD/sodipodi-0.dtd"
   xmlns:inkscape="http://www.inkscape.org/namespaces/inkscape"
   inkscape:version="1.0 (4035a4fb49, 2020-05-01)"
   sodipodi:docname="media-playlist-norepeat-symbolic.svg"
   id="svg70"
   version="1.1"
   height="16"
   width="16">
  <metadata
     id="metadata76">
    <rdf:RDF>
      <cc:Work
         rdf:about="">
        <dc:format>image/svg+xml</dc:format>
        <dc:type
           rdf:resource="http://purl.org/dc/dcmitype/StillImage" />
      </cc:Work>
    </rdf:RDF>
  </metadata>
  <defs
     id="defs74" />
  <sodipodi:namedview
     inkscape:current-layer="g68"
     inkscape:window-maximized="1"
     inkscape:window-y="0"
     inkscape:window-x="0"
     inkscape:cy="11.061124"
     inkscape:cx="5.6027667"
     inkscape:zoom="25.59375"
     showgrid="false"
     id="namedview72"
     inkscape:window-height="1016"
     inkscape:window-width="1920"
     inkscape:pageshadow="2"
     inkscape:pageopacity="0"
     guidetolerance="10"
     gridtolerance="10"
     objecttolerance="10"
     borderopacity="1"
     bordercolor="#666666"
     pagecolor="#ffffff" />
  <g
     id="g68"
     fill="#474747"
     color="#000">
    <path
       id="path62"
       overflow="visible"
       font-family="sans-serif"
       font-weight="400"
       style="line-height:normal;font-variant-ligatures:normal;font-variant-position:normal;font-variant-caps:normal;font-variant-numeric:normal;font-variant-alternates:normal;font-feature-settings:normal;text-indent:0;text-align:start;text-decoration-line:none;text-decoration-style:solid;text-decoration-color:#000;text-transform:none;text-orientation:mixed;shape-padding:0;isolation:auto;mix-blend-mode:normal"
       d="M9.98 8.99a1 1 0 00-.687.303L6.586 12l2.707 2.707a1 1 0 101.414-1.414L9.414 12l1.293-1.293a1 1 0 00-.726-1.717z" />
    <path
       sodipodi:nodetypes="sssccsssccsccsssccsssc"
       d="M 4,3 C 2.356,3 1,4.355 1,6 v 4 c 0,0.846197 0.3613378,1.612401 0.9335938,2.160156 L 3.3417969,10.751953 C 3.1337804,10.571576 3,10.310882 3,10 V 6 C 3,5.429 3.429,5 4,5 h 5.09375 l 2,-2 z M 14.066406,3.8398438 12.658203,5.2480469 C 12.866241,5.4284255 13,5.6890085 13,6 v 4 c 0,0.571 -0.428,1 -1,1 H 8 v 2 h 4 c 1.645,0 3,-1.355 3,-3 V 6 C 15,5.153803 14.638541,4.3875992 14.066406,3.8398438 Z"
       style="line-height:normal;font-variant-ligatures:normal;font-variant-position:normal;font-variant-caps:normal;font-variant-numeric:normal;font-variant-alternates:normal;font-feature-settings:normal;text-indent:0;text-align:start;text-decoration:none;text-decoration-line:none;text-decoration-style:solid;text-decoration-color:#000000;text-transform:none;text-orientation:mixed;shape-padding:0;isolation:auto;mix-blend-mode:normal"
       id="path64" />
    <path
       id="path66"
       overflow="visible"
       style="marker:none"
       d="M10 9h1v1h-1zm0 5h1v1h-1z" />
    <rect
       style="fill-rule:nonzero;stroke-width:1.22536"
       id="rect78-6"
       width="17.075754"
       height="2.0885184"
       x="-8.5378771"
       y="10.269449"
       ry="0"
       transform="rotate(-45)" />
  </g>
</svg>
